<svg width="22" height="22" viewBox="0 0 22 22" fill="none" xmlns="http://www.w3.org/2000/svg">
<path d="M5.09633 0.903669C5.19771 0.802287 5.36232 0.802524 5.464 0.904199L9.51417 4.95437C9.61584 5.05604 9.61608 5.22065 9.5147 5.32204L8.22971 6.60703C8.12833 6.70841 7.96372 6.70817 7.86204 6.6065L5.42274 4.16719C5.34655 4.091 5.22325 4.09076 5.14719 4.16658L4.13713 5.17665C4.06131 5.2527 4.06157 5.37599 4.13775 5.45218L9.52263 10.8371C9.62431 10.9387 9.62455 11.1033 9.52316 11.2047L4.15375 16.5741C4.07771 16.6502 4.07789 16.7736 4.15415 16.8499L5.16669 17.8624C5.24295 17.9387 5.3664 17.9389 5.44244 17.8628L10.8119 12.4934C10.9132 12.392 11.0778 12.3923 11.1795 12.494L12.4682 13.7826C12.5699 13.8843 12.5701 14.0489 12.4687 14.1503L5.4931 21.126C5.39171 21.2273 5.2271 21.2271 5.12543 21.1254L0.891158 16.8912C0.789483 16.7895 0.789246 16.6249 0.890628 16.5235L6.26004 11.1541C6.33608 11.078 6.3359 10.9546 6.25964 10.8783L0.874758 5.49344C0.773083 5.39176 0.772846 5.22715 0.874229 5.12577L5.09633 0.903669Z" fill="white"/>
<path d="M16.8448 21.0963C16.7434 21.1977 16.5788 21.1975 16.4771 21.0958L12.427 17.0456C12.3253 16.944 12.325 16.7793 12.4264 16.678L13.7114 15.393C13.8128 15.2916 13.9774 15.2918 14.0791 15.3935L16.5184 17.8328C16.5946 17.909 16.7179 17.9092 16.7939 17.8334L17.8038 16.8236L17.804 16.8234C17.8798 16.7473 17.8796 16.624 17.8034 16.5478L12.4185 11.1629C12.3168 11.0613 12.3166 10.8967 12.418 10.7953L17.7874 5.42586C17.8634 5.34982 17.8632 5.22636 17.787 5.15011L16.7744 4.13756C16.6982 4.06131 16.5747 4.06113 16.4987 4.13717L11.1293 9.50658C11.0279 9.60796 10.8633 9.60773 10.7616 9.50605L9.47291 8.21736C9.37123 8.11568 9.371 7.95107 9.47238 7.84969L16.448 0.874044C16.5494 0.772663 16.714 0.772899 16.8157 0.874575L21.05 5.10885C21.1516 5.21052 21.1519 5.37513 21.0505 5.47651L15.6811 10.8459C15.6051 10.9219 15.6052 11.0454 15.6814 11.1216L21.0664 16.5066C21.168 16.6082 21.1683 16.7728 21.0669 16.8742L16.8448 21.0963Z" fill="white"/>
</svg>
